<?xml version="1.0" encoding="utf-8"?>
<!-- Generator: Adobe Illustrator 27.2.0, SVG Export Plug-In . SVG Version: 6.00 Build 0)  -->
<svg version="1.1" id="Layer_1" xmlns="http://www.w3.org/2000/svg" xmlns:xlink="http://www.w3.org/1999/xlink" x="0px" y="0px"
	 width="15px" height="15px" viewBox="0 0 15 15" style="enable-background:new 0 0 15 15;" xml:space="preserve">
<style type="text/css">
	.cross{fill:#CB6E17;}
</style>
<g>
	<path class="cross" d="M5.7,10.8c0-0.9,0.1-1.6,0.4-2.1c0.3-0.4,0.8-1,1.6-1.6c0.5-0.4,0.9-0.8,1.1-1.3c0.3-0.5,0.4-1,0.4-1.5
		c0-0.6-0.2-1.1-0.5-1.5S8,2.4,7.4,2.4c-0.5,0-0.9,0.1-1.3,0.4C5.8,3.1,5.6,3.5,5.6,4.1H2.8l0-0.1c0-1.3,0.4-2.3,1.3-3s2-1,3.4-1
		c1.5,0,2.7,0.4,3.6,1.1c0.9,0.8,1.3,1.8,1.3,3.1c0,0.9-0.3,1.6-0.8,2.4S10.4,8,9.6,8.5c-0.4,0.3-0.7,0.6-0.8,1
		c-0.1,0.3-0.2,0.8-0.2,1.3H5.7z M8.6,15h-3v-2.5h3V15z"/>
</g>
</svg>
