<?xml version="1.0" encoding="utf-8"?>
<!-- Generator: Adobe Illustrator 27.2.0, SVG Export Plug-In . SVG Version: 6.00 Build 0)  -->
<svg version="1.1" id="Layer_1" xmlns="http://www.w3.org/2000/svg" xmlns:xlink="http://www.w3.org/1999/xlink" x="0px" y="0px"
	 width="544.2px" height="544.2px" viewBox="0 0 544.2 544.2" style="enable-background:new 0 0 544.2 544.2;" xml:space="preserve"
	>
<style type="text/css">
	.st0{fill:#4A00EB;}
	.st1{fill:#FFFFFF;}
</style>
<path class="st0" d="M271,544.4L112.1,385.5C69.6,343,46.3,286.6,46.3,226.6s23.4-116.5,65.8-158.9C154.5,25.2,211,1.8,271,1.8
	s116.5,23.4,158.9,65.8l0,0c42.4,42.4,65.8,98.9,65.8,158.9S472.3,343,429.9,385.4L271,544.4z M271,9.7
	c-57.9,0-112.4,22.6-153.4,63.5c-84.6,84.6-84.6,222.2,0,306.7L271,533.3l153.4-153.4c84.6-84.6,84.5-222.2,0-306.7
	C383.4,32.2,328.9,9.7,271,9.7z"/>
<path class="st0" d="M412.9,85.8c-78.4-78.4-205.5-78.4-283.9,0s-78.4,205.5,0,283.9L271,511.6l141.9-141.9
	C491.3,291.3,491.3,164.1,412.9,85.8z"/>
<path class="st1" d="M395.8,113.6H148.4c-6.8,0-12.4,5.6-12.4,12.4v197.8c0,6.8,5.6,12.4,12.4,12.4h247.3c6.8,0,12.4-5.6,12.4-12.4
	V126C408,119.2,402.6,113.6,395.8,113.6z M383.4,311.5H160.8v-6.5l62.2-52l16,12.1l-12.9,13c-4.7,4.9-4.6,12.8,0.3,17.5
	c4.8,4.6,12.4,4.6,17.2,0l76.4-76.4l63.2,84.2L383.4,311.5L383.4,311.5z M383.4,262l-52-69.2c-4.1-5.5-11.8-6.5-17.3-2.5
	c-0.5,0.4-0.9,0.8-1.3,1.2l-56,56L230,227.3c-4.6-3.5-10.9-3.3-15.4,0.4l-53.9,44.9V138.4h222.6V262z M185.5,187.9
	c0-13.6,11-24.8,24.8-24.8s24.8,11,24.8,24.8s-11,24.8-24.8,24.8S185.5,201.5,185.5,187.9z"/>
</svg>
