<?xml version="1.0" encoding="utf-8"?>
<!-- Generator: Adobe Illustrator 27.2.0, SVG Export Plug-In . SVG Version: 6.00 Build 0)  -->
<svg version="1.1" id="Layer_1" xmlns="http://www.w3.org/2000/svg" xmlns:xlink="http://www.w3.org/1999/xlink" x="0px" y="0px"
	 width="544.2px" height="544.2px" viewBox="0 0 544.2 544.2" style="enable-background:new 0 0 544.2 544.2;" xml:space="preserve"
	>
<style type="text/css">
	.st0{fill:#4A00EB;}
	.st1{fill:#FFFFFF;}
</style>
<path class="st0" d="M271,544.9L112.1,386c-42.4-42.4-65.8-98.9-65.8-158.9c0-60,23.4-116.5,65.8-158.9C154.5,25.7,211,2.4,271,2.4
	c60,0,116.5,23.4,158.9,65.8l0,0c42.4,42.4,65.8,98.9,65.8,158.9c0,60-23.4,116.5-65.8,158.9L271,544.9z M271,10.2
	c-57.9,0-112.4,22.6-153.4,63.5c-84.6,84.6-84.6,222.2,0,306.7L271,533.8l153.4-153.4c84.6-84.6,84.5-222.2,0-306.7
	C383.4,32.8,328.9,10.2,271,10.2z"/>
<path class="st0" d="M418.8,78.7c-81.6-81.6-214-81.6-295.6,0c-81.6,81.6-81.6,214,0,295.6L271,522.1l147.8-147.8
	C500.4,292.7,500.4,160.4,418.8,78.7z"/>
<path class="st1" d="M400.9,107.7H143.3c-7.1,0-12.9,5.8-12.9,12.9v206c0,7.1,5.8,12.9,12.9,12.9h257.5c7.1,0,12.9-5.8,12.9-12.9
	v-206C413.7,113.5,408,107.7,400.9,107.7z M388,313.8H156.2v-6.8l64.8-54.1l16.7,12.6l-13.4,13.5c-4.9,5.1-4.8,13.3,0.3,18.2
	c5,4.8,12.9,4.8,17.9,0l79.6-79.6l65.8,87.7V313.8z M388,262.3l-54.1-72.1c-4.3-5.7-12.3-6.8-18-2.6c-0.5,0.4-0.9,0.8-1.4,1.2
	l-58.3,58.3l-27.9-20.9c-4.8-3.6-11.4-3.4-16,0.4l-56.1,46.8V133.5H388V262.3z M182,185c0-14.2,11.5-25.8,25.8-25.8
	s25.8,11.5,25.8,25.8s-11.5,25.8-25.8,25.8S182,199.2,182,185z"/>
</svg>
