<?xml version="1.0" encoding="UTF-8"?><svg id="Layer_1" xmlns="http://www.w3.org/2000/svg" viewBox="0 0 600 600"><defs><style>.cls-1{fill:#ff3500;}.cls-2{fill:#fff;}.cls-2,.cls-3{stroke:#000;stroke-linejoin:round;stroke-width:16px;}</style></defs><rect class="cls-1" width="600" height="600" rx="50" ry="50"/><polygon class="cls-3" points="157.64 143.72 287.33 143.72 275.78 275.71 146.09 275.71 157.64 143.72"/><polygon class="cls-2" points="127.01 111.75 262.77 111.75 250.89 247.5 115.14 247.5 127.01 111.75"/><polygon class="cls-3" points="376.87 143.72 506.56 143.72 495.01 275.71 365.32 275.71 376.87 143.72"/><polygon class="cls-2" points="346.25 111.75 482 111.75 470.12 247.5 334.37 247.5 346.25 111.75"/><polygon class="cls-3" points="138.06 367.46 267.75 367.46 256.2 499.45 126.52 499.45 138.06 367.46"/><polygon class="cls-2" points="107.44 335.48 243.19 335.48 231.32 471.24 95.56 471.24 107.44 335.48"/><polygon class="cls-3" points="357.3 367.46 486.99 367.46 475.44 499.45 345.75 499.45 357.3 367.46"/><polygon class="cls-2" points="326.67 335.48 462.43 335.48 450.55 471.24 314.8 471.24 326.67 335.48"/><line class="cls-3" x1="127.01" y1="111.75" x2="250.89" y2="247.5"/><line class="cls-3" x1="115.14" y1="247.5" x2="262.77" y2="111.75"/><line class="cls-3" x1="314.8" y1="471.24" x2="462.43" y2="335.48"/><line class="cls-3" x1="326.67" y1="335.48" x2="450.55" y2="471.24"/><line class="cls-2" x1="368.36" y1="149.66" x2="453.95" y2="149.66"/><line class="cls-2" x1="363.12" y1="209.59" x2="405.91" y2="209.59"/><line class="cls-2" x1="365.74" y1="179.62" x2="451.33" y2="179.62"/></svg>